# xmcd
#
# Track frame offsets:
#	150
#	11543
#	40948
#	69418
#	95216
#	122075
#	136496
#	156988
#
# Disc length: 2406 seconds
#
# Revision: 1
# Processed by: cddbd v1.5.2PL0 Copyright (c) Steve Scherf et al.
# Submitted via: audiograbber 1.83.01
#
DISCID=6c096408
DTITLE=Das Schönste Schwarz - Das Schönste Schwarz
DYEAR=2017
DGENRE=Blues
TTITLE0=Laufhausblues
TTITLE1=I moch Schluss
TTITLE2=Nebelmeer
TTITLE3=Gegen Gewalt
TTITLE4=Was gwesn hätt sein solln
TTITLE5=Z'rissn in dir
TTITLE6=Locker and entspannt
TTITLE7=Du glaubst du kennst mi
EXTD=
EXTT0=
EXTT1=
EXTT2=
EXTT3=
EXTT4=
EXTT5=
EXTT6=
EXTT7=
PLAYORDER=
